<?xml version="1.0" encoding="UTF-8" standalone="no"?>
<!-- Created with Inkscape (http://www.inkscape.org/) -->
<svg
   xmlns:dc="http://purl.org/dc/elements/1.1/"
   xmlns:cc="http://web.resource.org/cc/"
   xmlns:rdf="http://www.w3.org/1999/02/22-rdf-syntax-ns#"
   xmlns:svg="http://www.w3.org/2000/svg"
   xmlns="http://www.w3.org/2000/svg"
   xmlns:sodipodi="http://inkscape.sourceforge.net/DTD/sodipodi-0.dtd"
   xmlns:inkscape="http://www.inkscape.org/namespaces/inkscape"
   id="svg7437"
   sodipodi:version="0.32"
   inkscape:version="0.43"
   width="16"
   height="16"
   version="1.0"
   sodipodi:docbase="H:\seb\public_html\basket6"
   sodipodi:docname="ico-download.svg"
   inkscape:export-filename="H:\seb\public_html\basket6\data\ico-download.png"
   inkscape:export-xdpi="90"
   inkscape:export-ydpi="90">
  <metadata
     id="metadata7442">
    <rdf:RDF>
      <cc:Work
         rdf:about="">
        <dc:format>image/svg+xml</dc:format>
        <dc:type
           rdf:resource="http://purl.org/dc/dcmitype/StillImage" />
      </cc:Work>
    </rdf:RDF>
  </metadata>
  <defs
     id="defs7440" />
  <sodipodi:namedview
     inkscape:window-height="724"
     inkscape:window-width="1024"
     inkscape:pageshadow="2"
     inkscape:pageopacity="0.0"
     borderopacity="1.0"
     bordercolor="#666666"
     pagecolor="#ffffff"
     id="base"
     showgrid="true"
     inkscape:grid-bbox="true"
     inkscape:grid-points="false"
     inkscape:zoom="32"
     inkscape:cx="0.16287793"
     inkscape:cy="7.6827767"
     inkscape:window-x="-4"
     inkscape:window-y="18"
     inkscape:current-layer="svg7437" />
  <rect
     style="opacity:1;fill:#0000e5;fill-opacity:0.95379537;fill-rule:evenodd;stroke:none;stroke-width:1.5;stroke-miterlimit:4;stroke-dasharray:none;stroke-opacity:1"
     id="rect7444"
     width="16"
     height="16"
     x="-18"
     y="0"
     rx="1.7680857"
     ry="1.7680856" />
  <path
     style="opacity:1;fill:#0000e5;fill-opacity:0;fill-rule:evenodd;stroke:#ffffff;stroke-width:0.94680864;stroke-miterlimit:4;stroke-dasharray:none;stroke-opacity:1"
     d="M 10.162782,3.706481 C 9.5597817,3.7536851 9.0894732,3.8490405 9.0894732,4.4857869 L 9.0894732,7.5264817 C 7.9742045,7.5305523 6.9932988,7.5264817 6.6306215,7.5264817 C 6.6268111,7.5264817 6.6147756,7.5263604 6.6111068,7.5264817 C 6.6005234,7.527207 6.5814069,7.5448923 6.5720775,7.5466842 C 6.5691054,7.5473982 6.5553979,7.5458547 6.5525628,7.5466842 C 6.5499992,7.5477424 6.5354771,7.5455134 6.533048,7.5466842 C 6.5284575,7.5492496 6.5175937,7.5638798 6.5135334,7.5668868 C 6.5117652,7.5686074 6.4956571,7.5852618 6.4940187,7.5870895 C 6.4912563,7.5911674 6.4767583,7.6027991 6.474504,7.607292 C 6.4735026,7.6096408 6.4753803,7.6250444 6.474504,7.6274946 C 6.4738752,7.6301447 6.47501,7.6449486 6.474504,7.6476973 C 6.4741197,7.6505434 6.4747672,7.664957 6.474504,7.6678998 C 6.4744804,7.671033 6.4720415,7.6860146 6.474504,7.6881024 C 10.995729,11.521434 10.945196,11.526594 11.001913,11.526594 C 11.080262,11.526594 10.988564,11.545616 15.529323,7.6678998 C 15.531796,7.6657884 15.529346,7.6508527 15.529323,7.6476973 C 15.52918,7.6446371 15.529586,7.6304585 15.529323,7.6274946 C 15.528939,7.6246283 15.529829,7.6100602 15.529323,7.607292 C 15.528572,7.6047232 15.530199,7.5895571 15.529323,7.5870895 C 15.52732,7.5823584 15.512316,7.5712038 15.509809,7.5668868 C 15.50679,7.5629917 15.49383,7.55015 15.490294,7.5466842 C 15.486497,7.5434364 15.475104,7.5292888 15.470779,7.5264817 C 15.46835,7.5253025 15.453827,7.5275473 15.451265,7.5264817 C 15.445866,7.5245796 15.437694,7.5077171 15.43175,7.5062792 C 15.42864,7.5056775 15.415483,7.5067624 15.412235,7.5062792 C 15.408847,7.5059152 15.396248,7.5065226 15.392721,7.5062792 C 15.389051,7.5061569 15.377016,7.5062792 15.373205,7.5062792 C 14.956549,7.5062792 14.01644,7.5023552 12.914353,7.5062792 L 12.914353,4.4789162 C 12.914353,3.8108544 12.408301,3.706481 11.762987,3.706481 L 10.24084,3.706481 C 10.210591,3.706481 10.192437,3.7041594 10.162782,3.706481 z "
     id="rect8319"
     sodipodi:nodetypes="cccssssssssssssssssssssssssssccccc"
     inkscape:export-filename="H:\seb\public_html\basket6\data\ico-download.png"
     inkscape:export-xdpi="90"
     inkscape:export-ydpi="90" />
  <rect
     style="opacity:1;fill:#0000e5;fill-opacity:0.95379537;fill-rule:evenodd;stroke:none;stroke-width:1.5;stroke-miterlimit:4;stroke-dasharray:none;stroke-opacity:1"
     id="rect10943"
     width="16"
     height="16"
     x="20.826923"
     y="0.25"
     rx="1.7680857"
     ry="1.7680856" />
  <rect
     style="opacity:1;fill:#0000e5;fill-opacity:0;fill-rule:evenodd;stroke:#ffffff;stroke-width:1.5;stroke-miterlimit:4;stroke-dasharray:none;stroke-opacity:1"
     id="rect10945"
     width="6.1538463"
     height="8.9347916"
     x="25.75"
     y="1.3152084"
     rx="1.8653053"
     ry="1.8653053" />
  <path
     style="fill:none;fill-opacity:0.75;fill-rule:evenodd;stroke:#ffffff;stroke-width:1.5;stroke-linecap:butt;stroke-linejoin:miter;stroke-miterlimit:4;stroke-dasharray:none;stroke-opacity:1"
     d="M 28.826923,15.469828 C 31.49359,15.469828 37.38902,9.2500004 35.826923,9.2500004 C 33.729961,9.2500004 23.608849,9.2939664 21.826923,9.2939664 C 20.264826,9.2939664 26.160257,15.469828 28.826923,15.469828 z "
     id="path10947"
     sodipodi:nodetypes="csss" />
</svg>
