<?xml version="1.0" encoding="UTF-8" standalone="no"?>
<!-- Created with Inkscape (http://www.inkscape.org/) -->
<svg
   xmlns:dc="http://purl.org/dc/elements/1.1/"
   xmlns:cc="http://web.resource.org/cc/"
   xmlns:rdf="http://www.w3.org/1999/02/22-rdf-syntax-ns#"
   xmlns:svg="http://www.w3.org/2000/svg"
   xmlns="http://www.w3.org/2000/svg"
   xmlns:xlink="http://www.w3.org/1999/xlink"
   xmlns:sodipodi="http://inkscape.sourceforge.net/DTD/sodipodi-0.dtd"
   xmlns:inkscape="http://www.inkscape.org/namespaces/inkscape"
   width="210mm"
   height="297mm"
   id="svg2"
   sodipodi:version="0.32"
   inkscape:version="0.43"
   sodipodi:docbase="/home/seb"
   sodipodi:docname="NotePads.svg">
  <defs
     id="defs4">
    <linearGradient
       inkscape:collect="always"
       id="linearGradient5373">
      <stop
         style="stop-color:#000000;stop-opacity:1;"
         offset="0"
         id="stop5375" />
      <stop
         style="stop-color:#000000;stop-opacity:0;"
         offset="1"
         id="stop5377" />
    </linearGradient>
    <linearGradient
       id="linearGradient5214">
      <stop
         style="stop-color:#0000ff;stop-opacity:1;"
         offset="0"
         id="stop5216" />
      <stop
         style="stop-color:#0000ff;stop-opacity:0;"
         offset="1"
         id="stop5218" />
    </linearGradient>
    <linearGradient
       inkscape:collect="always"
       id="linearGradient5208">
      <stop
         style="stop-color:#0000ff;stop-opacity:1;"
         offset="0"
         id="stop5210" />
      <stop
         style="stop-color:#0000ff;stop-opacity:0;"
         offset="1"
         id="stop5212" />
    </linearGradient>
    <linearGradient
       inkscape:collect="always"
       xlink:href="#linearGradient5208"
       id="linearGradient5206"
       x1="190"
       y1="299.50504"
       x2="142.85715"
       y2="363.79074"
       gradientUnits="userSpaceOnUse"
       gradientTransform="translate(-35.71429,448.5714)" />
    <radialGradient
       inkscape:collect="always"
       xlink:href="#linearGradient5214"
       id="radialGradient5222"
       cx="175.71428"
       cy="335.52667"
       fx="175.71428"
       fy="335.52667"
       r="89.910713"
       gradientTransform="matrix(0.113302,9.285374e-2,-1.279188,1.560902,585.0071,-201.9635)"
       gradientUnits="userSpaceOnUse" />
    <radialGradient
       inkscape:collect="always"
       xlink:href="#linearGradient5214"
       id="radialGradient5371"
       cx="502.3671"
       cy="365.4203"
       fx="502.3671"
       fy="365.4203"
       r="122.63457"
       gradientTransform="matrix(1,0,0,1.969003,194.2857,-405.5219)"
       gradientUnits="userSpaceOnUse" />
    <radialGradient
       inkscape:collect="always"
       xlink:href="#linearGradient5373"
       id="radialGradient5379"
       cx="527.14288"
       cy="312.94916"
       fx="527.14288"
       fy="312.94916"
       r="123.25957"
       gradientTransform="matrix(0.798993,0.278158,-0.645749,1.8549,502.3318,-516.1846)"
       gradientUnits="userSpaceOnUse" />
  </defs>
  <sodipodi:namedview
     id="base"
     pagecolor="#ffffff"
     bordercolor="#666666"
     borderopacity="1.0"
     inkscape:pageopacity="0.0"
     inkscape:pageshadow="2"
     inkscape:zoom="0.49497475"
     inkscape:cx="233.41514"
     inkscape:cy="603.85417"
     inkscape:document-units="px"
     inkscape:current-layer="layer1"
     inkscape:window-width="1024"
     inkscape:window-height="726"
     inkscape:window-x="0"
     inkscape:window-y="24" />
  <metadata
     id="metadata7">
    <rdf:RDF>
      <cc:Work
         rdf:about="">
        <dc:format>image/svg+xml</dc:format>
        <dc:type
           rdf:resource="http://purl.org/dc/dcmitype/StillImage" />
      </cc:Work>
    </rdf:RDF>
  </metadata>
  <g
     inkscape:label="Calque 1"
     inkscape:groupmode="layer"
     id="layer1">
    <path
       style="fill:#000000;fill-opacity:0.75;fill-rule:nonzero;stroke:none;stroke-width:1pt;stroke-linecap:butt;stroke-linejoin:miter;stroke-opacity:1"
       id="path5290"
       d="M 47.753486,430.72419 C 48.206981,439.66699 49.36606,448.62329 50.229086,457.55169 C 52.342679,477.50639 52.639313,497.58709 50.819145,517.56369 C 49.749952,530.62189 45.79327,542.69559 38.756416,553.67309 C 33.539924,561.37609 27.459417,568.43899 21.348112,575.43589 L -3.2192649,585.79699 C 2.9549891,578.82099 9.2073451,571.87149 14.562169,564.23099 C 21.799619,553.61879 26.308667,541.96069 27.587626,529.07379 C 29.755543,509.28659 29.655235,489.33919 27.248545,469.56229 C 26.21345,460.69669 25.159447,451.82419 23.590978,443.03559 L 47.753486,430.72419 z " />
    <path
       style="fill:#000000;fill-opacity:0.75;fill-rule:nonzero;stroke:none;stroke-width:1pt;stroke-linecap:butt;stroke-linejoin:miter;stroke-opacity:1"
       id="path5292"
       d="M 50.617947,442.09769 C 51.750771,447.11059 54.772625,454.54469 56.838257,460.13809 C 61.925076,473.71829 67.177858,487.23739 72.456228,500.74439 C 76.569869,511.40419 81.278637,521.81649 86.19576,532.12509 C 90.489575,540.87219 94.420665,549.78219 98.187635,558.76599 C 99.235845,561.34919 100.33529,563.91079 101.42501,566.47639 L 78.181191,579.53209 C 77.124216,576.93399 76.060134,574.33879 75.035906,571.72729 C 71.370044,562.75259 67.472325,553.88099 63.165718,545.19189 C 58.222791,534.80339 53.691382,524.23059 49.630388,513.46329 C 44.389912,499.93899 39.129048,486.42329 33.855596,472.91199 C 31.438449,466.72729 29.028911,460.52879 26.440803,454.41659 L 50.617947,442.09769 z " />
    <path
       style="fill:#000000;fill-opacity:0.75;fill-rule:nonzero;stroke:none;stroke-width:1pt;stroke-linecap:butt;stroke-linejoin:miter;stroke-opacity:1"
       id="path5294"
       d="M 103.4751,432.09769 C 103.06127,437.58919 101.93583,443.01479 100.99544,448.43669 C 98.765385,461.29849 97.461615,474.29439 96.312965,487.28999 C 95.364395,497.23719 95.288235,507.22609 95.409645,517.20719 C 95.471795,525.53079 95.757205,533.82229 97.041805,542.04819 C 97.405385,544.39169 98.199145,546.62919 98.822755,548.90539 L 75.425355,561.75589 C 74.731416,559.38359 73.940192,557.03239 73.519903,554.58799 C 72.171532,546.21009 71.85639,537.76849 71.811066,529.28369 C 71.675961,519.19189 71.729636,509.09159 72.743951,499.03739 C 73.975808,485.99929 75.346327,472.96699 77.338863,460.02019 C 78.116801,454.84509 79.074645,449.64469 79.297946,444.41659 L 103.4751,432.09769 z " />
    <path
       style="fill:#000000;fill-opacity:0.75;fill-rule:nonzero;stroke:none;stroke-width:1pt;stroke-linecap:butt;stroke-linejoin:miter;stroke-opacity:1"
       id="path5296"
       d="M 143.24179,520.49189 C 140.9556,522.40429 137.30496,524.00029 134.45513,525.56159 C 173.40127,503.07089 148.29874,511.48699 148.48767,526.51399 C 150.08755,535.79349 154.92643,543.81629 160.623,551.12729 C 166.13995,557.71059 173.05887,559.95009 181.29941,560.62999 C 222.4573,548.19289 168.41994,574.71889 184.72734,563.54599 C 192.19729,557.58349 196.209,549.57019 198.91518,540.63579 C 201.13776,532.05079 198.55323,526.57679 192.14716,521.05989 C 183.05868,515.43909 172.39602,515.57659 162.05609,515.88739 C 160.28877,515.95119 158.53257,516.15929 156.77081,516.29519 L 177.91613,500.67729 C 177.91808,500.67719 183.2774,500.28259 183.28333,500.36139 C 194.20241,500.20009 205.27245,500.48229 214.5933,506.87589 C 221.52032,513.14219 224.93628,519.55869 222.84227,529.15679 C 220.35075,538.48919 216.64028,547.05289 209.26867,553.64829 C 195.26849,565.29309 178.31299,575.88459 159.72234,576.12239 C 150.95091,574.87199 143.6333,571.90189 137.89268,564.78179 C 131.99342,557.01699 126.97017,548.55599 124.96506,538.88249 C 123.1981,520.44979 139.21294,517.49759 155.21884,508.81269 C 158.31424,507.14369 161.75625,504.62979 165.19418,504.54249 L 143.24179,520.49189 z " />
    <path
       style="fill:#000000;fill-opacity:0.75;fill-rule:nonzero;stroke:none;stroke-width:1pt;stroke-linecap:butt;stroke-linejoin:miter;stroke-opacity:1"
       id="path5298"
       d="M 267.7608,434.95489 C 267.31467,440.31699 267.52599,445.69049 267.75031,451.05789 C 268.32027,464.86259 270.2279,478.54469 272.64776,492.13109 C 275.02061,504.06179 276.5667,516.10829 277.13061,528.25569 C 277.39912,534.96649 277.11562,541.67789 276.81458,548.38129 L 253.08756,560.28589 C 253.44877,553.64039 253.7876,546.98709 253.627,540.32829 C 253.23587,528.26389 251.82843,516.28799 249.51739,504.43529 C 247.11521,490.77089 245.18075,477.02549 244.34218,463.16589 C 243.96168,457.87389 243.62046,452.57669 243.58366,447.27369 L 267.7608,434.95489 z " />
    <path
       style="fill:#000000;fill-opacity:0.75;fill-rule:nonzero;stroke:none;stroke-width:1pt;stroke-linecap:butt;stroke-linejoin:miter;stroke-opacity:1"
       id="path5300"
       d="M 273.81695,484.54249 C 277.88561,483.16419 282.84702,482.35759 287.24635,481.42399 C 291.82965,480.43559 296.47004,479.77459 301.10448,479.08629 L 279.90491,494.96799 C 275.28892,495.70599 270.66708,496.41849 266.10842,497.47079 C 261.41919,498.52029 256.54673,499.97909 251.86456,500.49189 L 273.81695,484.54249 z " />
    <path
       style="fill:#000000;fill-opacity:0.75;fill-rule:nonzero;stroke:none;stroke-width:1pt;stroke-linecap:butt;stroke-linejoin:miter;stroke-opacity:1"
       id="path5302"
       d="M 312.82144,521.66099 C 331.96545,516.52339 373.37618,492.71809 339.26287,511.76049 C 345.28624,507.04509 357.61334,499.53919 345.23634,496.12979 C 334.29375,494.90579 323.44172,497.05189 313.29125,501.10419 C 340.79441,488.88059 327.84391,485.41709 318.39697,504.66099 C 315.43641,512.83599 316.09129,521.14109 318.10782,529.40199 C 320.6914,538.17509 326.6413,543.63159 334.01929,548.48059 C 343.12757,553.64379 353.24754,555.88519 363.60326,556.55309 C 374.66889,557.03969 385.02134,553.35829 394.74284,548.42799 C 395.40115,548.05039 396.05946,547.67269 396.71778,547.29509 C 389.8262,551.25929 382.93462,555.22349 376.04304,559.18769 L 400.70428,549.70029 C 392.5199,554.42359 384.33551,559.14699 376.15112,563.87029 C 375.47795,564.22049 374.80478,564.57069 374.13161,564.92079 C 364.04259,569.59529 353.41144,572.86079 342.15146,571.93389 C 331.50221,570.90519 321.06743,568.40699 311.79806,562.85129 C 303.88779,557.68149 297.68935,551.36859 294.80298,542.14399 C 292.55741,533.43459 291.6982,524.67539 294.27286,515.88109 C 301.20377,498.76149 317.25905,492.67639 334.09544,484.75809 C 344.64985,481.15049 355.91158,479.15019 367.02901,481.02569 C 380.76855,486.54659 372.92219,495.74729 363.41975,502.32509 C 340.43206,515.92429 317.24053,530.78519 291.08095,537.60779 L 312.82144,521.66099 z " />
    <path
       style="fill:#000000;fill-opacity:0.75;fill-rule:nonzero;stroke:none;stroke-width:1pt;stroke-linecap:butt;stroke-linejoin:miter;stroke-opacity:1"
       id="path5304"
       d="M 475.24552,430.25679 C 477.72881,433.93979 478.56937,438.50389 479.79655,442.73059 C 482.60223,452.35829 483.55507,462.33989 484.0709,472.31249 C 484.61462,482.50249 484.00353,492.67019 482.48738,502.74809 C 481.06354,512.53969 478.06517,521.95949 474.37436,531.10709 C 472.3099,535.97349 469.94431,540.70259 467.5632,545.41909 L 443.45218,556.28319 C 445.88587,551.63569 448.25314,546.95139 450.36911,542.14869 C 454.12083,533.20619 457.16603,523.97209 458.71659,514.37149 C 460.26889,504.45169 461.08173,494.45209 460.58901,484.39899 C 460.16302,474.64189 459.26841,464.86819 456.43239,455.47379 C 455.88494,453.71989 453.10865,444.95639 453.29313,446.20619 L 475.24552,430.25679 z " />
    <path
       style="fill:#000000;fill-opacity:0.75;fill-rule:nonzero;stroke:none;stroke-width:1pt;stroke-linecap:butt;stroke-linejoin:miter;stroke-opacity:1"
       id="path5306"
       d="M 481.00567,438.80799 C 481.35259,434.90609 478.33397,435.26839 484.65445,436.37379 C 490.88998,437.88869 496.85135,440.16399 502.7569,442.63639 C 511.03204,445.92319 515.45848,451.70359 518.32655,459.82909 C 520.40976,467.41699 520.54995,475.18849 519.86828,482.95939 C 518.79065,492.02459 513.52611,498.17569 506.91966,503.94079 C 494.91915,512.43089 482.04602,519.71039 468.28663,524.81699 L 489.10643,508.53109 C 498.89564,504.55549 518.76874,493.94139 478.68485,515.86669 C 479.89059,515.15149 481.14415,514.51689 482.30209,513.72109 C 488.86383,508.65289 494.51911,503.25749 495.96235,494.69439 C 496.86679,487.27089 496.84682,479.82969 494.93897,472.52709 C 492.42916,464.99949 488.27726,460.20249 480.60583,457.41309 C 474.75604,455.08019 468.83566,452.90539 462.6233,451.74049 C 458.46942,452.29099 458.21387,452.50089 455.9504,449.18619 L 481.00567,438.80799 z " />
    <path
       style="fill:#000000;fill-opacity:0.75;fill-rule:nonzero;stroke:none;stroke-width:1pt;stroke-linecap:butt;stroke-linejoin:miter;stroke-opacity:1"
       id="path5308"
       d="M 556.09894,507.63469 C 550.55302,506.29009 544.17391,506.37719 538.34677,506.13649 C 527.89446,505.52629 517.81596,506.65269 508.33391,511.06899 C 546.39404,489.17619 519.09433,497.60259 526.95156,513.03769 C 531.67236,520.15729 538.34826,525.43929 545.35119,530.14919 C 551.7419,534.47869 557.47226,535.74419 564.64363,533.59209 C 531.3004,554.51589 549.1919,545.96499 552.45691,527.64999 C 553.66122,518.17039 553.36694,508.58039 552.33345,499.10619 C 584.05482,478.07219 576.75879,490.15769 578.52277,514.79919 C 578.95681,521.90249 579.30691,529.01059 579.70289,536.11619 L 556.36168,548.15519 C 556.05117,541.03889 555.77982,533.91989 555.34807,526.80969 C 553.41788,501.20009 546.55873,499.21649 576.3692,486.86829 C 576.36968,496.54759 577.16747,506.30169 576.15127,515.97909 C 573.40809,536.46139 565.00046,540.11109 543.59184,550.09949 C 535.89189,550.90189 529.4751,549.10749 523.02494,544.51149 C 515.79978,539.42769 508.86604,533.83789 503.91725,526.39809 C 494.13642,507.96619 512.02688,502.98699 529.09525,494.48589 C 538.97831,490.90779 549.24957,490.03959 559.75371,490.70549 C 565.55066,490.92449 572.96476,491.30539 578.05133,491.68539 L 556.09894,507.63469 z " />
    <path
       style="fill:#000000;fill-opacity:0.75;fill-rule:nonzero;stroke:none;stroke-width:1pt;stroke-linecap:butt;stroke-linejoin:miter;stroke-opacity:1"
       id="path5314"
       d="M 633.24179,496.20619 C 630.31074,495.94229 627.3789,495.55839 624.44447,495.25519 C 618.17827,494.63559 612.80582,496.77419 607.31011,499.42409 C 641.64855,480.35189 624.31072,484.90059 617.83128,499.66929 C 615.17767,507.73489 615.59188,515.81429 617.67316,523.89489 C 620.77105,532.23119 627.23364,535.04569 635.42149,536.54659 C 670.48868,525.02119 614.96991,575.23879 635.17881,534.87969 C 640.87494,516.84599 640.00597,497.44039 639.40425,478.73939 C 638.90861,466.14989 637.65593,453.61019 636.63493,441.05739 C 636.50463,439.64099 636.53903,438.21769 636.4911,436.79859 L 660.32045,424.68949 C 660.30744,426.07579 660.20746,427.46289 660.28142,428.84999 C 660.95292,441.54439 662.03967,454.21869 662.38883,466.93059 C 662.88694,485.89089 663.65872,505.34769 658.98211,523.86399 C 652.03384,541.27209 632.46065,553.23669 613.72065,551.83189 C 604.78396,549.59549 597.82183,545.81109 594.39131,536.71419 C 592.05019,528.20169 591.39546,519.66889 593.7318,511.01279 C 599.25338,494.87609 611.89362,490.95109 628.17615,482.74349 C 634.03908,480.38069 639.81524,478.82189 646.23122,479.72689 C 649.21039,480.00669 652.19929,480.44709 655.19418,480.25679 L 633.24179,496.20619 z " />
    <path
       style="fill:#000000;fill-opacity:0.75;fill-rule:nonzero;stroke:none;stroke-width:1pt;stroke-linecap:butt;stroke-linejoin:miter;stroke-opacity:1"
       id="path5316"
       d="M 716.4408,484.36529 C 716.0053,484.84639 710.77352,483.76469 708.71253,483.53999 C 699.35784,483.35759 690.52466,485.79019 682.15485,489.72799 C 724.09927,466.39859 690.53741,477.58119 698.75496,491.67309 C 705.26511,497.63059 713.83139,499.53289 722.21907,501.28889 C 729.76596,502.26029 736.20703,504.46449 741.73169,509.67169 C 747.03916,516.70459 746.30356,523.69969 742.69601,531.21089 C 729.70985,547.28909 710.87622,552.51479 691.68158,552.83079 L 712.95109,537.32719 C 719.96971,537.06769 739.75275,530.14969 733.71263,533.73369 C 695.23554,556.56489 710.95169,548.34239 718.31779,541.82149 C 722.35284,535.55899 723.55383,529.92319 718.90066,523.53449 C 713.42704,519.26639 707.3819,517.38979 700.41918,516.45299 C 691.55037,514.42439 682.66208,511.95809 675.94334,505.45789 C 664.12272,488.22109 690.87594,479.54219 702.84948,473.16939 C 711.66706,469.74799 720.83158,467.45889 730.38819,468.00379 C 734.36221,468.60959 738.17273,468.60099 740.61794,472.04639 L 716.4408,484.36529 z " />
  </g>
</svg>
