<?xml version="1.0" encoding="UTF-8" standalone="no"?>
<!-- Created with Inkscape (http://www.inkscape.org/) -->
<svg
   xmlns:dc="http://purl.org/dc/elements/1.1/"
   xmlns:cc="http://web.resource.org/cc/"
   xmlns:rdf="http://www.w3.org/1999/02/22-rdf-syntax-ns#"
   xmlns:svg="http://www.w3.org/2000/svg"
   xmlns="http://www.w3.org/2000/svg"
   xmlns:sodipodi="http://inkscape.sourceforge.net/DTD/sodipodi-0.dtd"
   xmlns:inkscape="http://www.inkscape.org/namespaces/inkscape"
   width="744.09448819"
   height="1052.3622047"
   id="svg2"
   sodipodi:version="0.32"
   inkscape:version="0.43"
   sodipodi:docbase="/home/seb/public_html/basket6/work"
   sodipodi:docname="small-screenshot-rect.svg">
  <defs
     id="defs4" />
  <sodipodi:namedview
     id="base"
     pagecolor="#ffffff"
     bordercolor="#666666"
     borderopacity="1.0"
     inkscape:pageopacity="0.0"
     inkscape:pageshadow="2"
     inkscape:zoom="2.8284271"
     inkscape:cx="585.3594"
     inkscape:cy="635.84597"
     inkscape:document-units="px"
     inkscape:current-layer="layer1"
     showgrid="true"
     inkscape:grid-bbox="true"
     inkscape:grid-points="true"
     inkscape:window-width="963"
     inkscape:window-height="540"
     inkscape:window-x="213"
     inkscape:window-y="118" />
  <metadata
     id="metadata7">
    <rdf:RDF>
      <cc:Work
         rdf:about="">
        <dc:format>image/svg+xml</dc:format>
        <dc:type
           rdf:resource="http://purl.org/dc/dcmitype/StillImage" />
      </cc:Work>
    </rdf:RDF>
  </metadata>
  <g
     inkscape:label="Layer 1"
     inkscape:groupmode="layer"
     id="layer1">
    <rect
       style="fill:#3b3dd5;fill-opacity:1;stroke:none;stroke-width:1;stroke-miterlimit:4;stroke-dasharray:none;stroke-opacity:1"
       id="rect5691"
       width="388"
       height="180"
       x="305"
       y="619.95184" />
    <path
       style="fill:#ffffff;fill-opacity:1;stroke:none;stroke-width:1;stroke-miterlimit:4;stroke-dasharray:none;stroke-opacity:1"
       d="M 470 395.375 L 470 455.375 L 670 455.375 L 670 395.375 L 470 395.375 z M 475 395.875 C 475.16849 395.85799 475.32687 395.875 475.5 395.875 L 662.5 395.875 C 665.27 395.875 667.5 398.105 667.5 400.875 L 667.5 447.875 C 667.5 450.645 665.27 452.875 662.5 452.875 L 475.5 452.875 C 472.73 452.875 470.5 450.645 470.5 447.875 L 470.5 400.875 C 470.5 398.27813 472.4726 396.13014 475 395.875 z "
       id="rect5686"
       inkscape:export-filename="/home/seb/public_html/basket6/work/small-screenshot-rect.png"
       inkscape:export-xdpi="90"
       inkscape:export-ydpi="90" />
    <path
       style="fill:#e0e0e0;fill-opacity:1;stroke:none;stroke-width:1;stroke-miterlimit:4;stroke-dasharray:none;stroke-opacity:1"
       d="M 667.15625 399.03125 C 667.3646 399.56151 667.48485 400.11659 667.5 400.71875 C 667.5067 400.72681 667.49333 400.74191 667.5 400.75 C 668.43312 401.8826 669 403.34167 669 404.9375 L 669 447.78125 C 669 451.42885 666.08507 454.375 662.4375 454.375 L 479.5625 454.375 C 477.98805 454.375 476.56343 453.79229 475.4375 452.875 C 475.42731 452.8667 475.38514 452.88336 475.375 452.875 C 474.77284 452.85985 474.18651 452.7396 473.65625 452.53125 C 475.04111 454.26043 477.17614 455.375 479.5625 455.375 L 662.4375 455.375 C 666.62178 455.375 670 451.96555 670 447.78125 L 670 404.9375 C 670 402.54296 668.88685 400.41577 667.15625 399.03125 z "
       id="rect5676"
       inkscape:export-filename="/home/seb/public_html/basket6/work/small-screenshot-rect.png"
       inkscape:export-xdpi="90"
       inkscape:export-ydpi="90" />
    <path
       style="fill:#c0c0c0;fill-opacity:1;stroke:none;stroke-width:1;stroke-miterlimit:4;stroke-dasharray:none;stroke-opacity:1"
       d="M 666.375 397.65625 C 667.02907 398.44463 667.43128 399.44009 667.5 400.53125 C 667.50943 400.55145 667.49081 400.57341 667.5 400.59375 C 667.81255 401.28538 668 402.0594 668 402.875 L 668 447.84375 C 668 450.91424 665.53925 453.375 662.46875 453.375 L 477.53125 453.375 C 476.69166 453.375 475.89807 453.17388 475.1875 452.84375 C 474.10166 452.77536 473.09902 452.36732 472.3125 451.71875 C 473.50276 453.32031 475.38244 454.375 477.53125 454.375 L 662.46875 454.375 C 666.07595 454.375 669 451.45094 669 447.84375 L 669 402.875 C 669 400.73322 667.96762 398.83833 666.375 397.65625 z "
       id="rect2182"
       inkscape:export-filename="/home/seb/public_html/basket6/work/small-screenshot-rect.png"
       inkscape:export-xdpi="90"
       inkscape:export-ydpi="90" />
    <rect
       style="fill:none;fill-opacity:1;stroke:#808080;stroke-width:1;stroke-miterlimit:4;stroke-dasharray:none;stroke-opacity:1"
       id="rect5680"
       width="197"
       height="57"
       x="470.5"
       y="-452.86218"
       rx="5"
       ry="5"
       transform="scale(1,-1)"
       inkscape:export-filename="/home/seb/public_html/basket6/work/small-screenshot-rect.png"
       inkscape:export-xdpi="90"
       inkscape:export-ydpi="90" />
  </g>
</svg>
